<?xml version="1.0" encoding="UTF-8"?>
<!DOCTYPE svg PUBLIC "-//W3C//DTD SVG 1.1//EN" "http://www.w3.org/Graphics/SVG/1.1/DTD/svg11.dtd">
<svg xmlns="http://www.w3.org/2000/svg" version="1.1" width="1153px" height="305px" style="shape-rendering:geometricPrecision; text-rendering:geometricPrecision; image-rendering:optimizeQuality; fill-rule:evenodd; clip-rule:evenodd" xmlns:xlink="http://www.w3.org/1999/xlink">
<g><path style="opacity:0.983" fill="#000000" d="M 551.5,-0.5 C 556.167,-0.5 560.833,-0.5 565.5,-0.5C 584.753,-0.671763 602.753,4.16157 619.5,14C 627.037,20.5755 631.87,28.7422 634,38.5C 634.667,76.1667 634.667,113.833 634,151.5C 631.809,164.012 625.309,173.512 614.5,180C 596.792,188.341 578.125,191.841 558.5,190.5C 538.875,191.841 520.208,188.341 502.5,180C 491.691,173.512 485.191,164.012 483,151.5C 482.333,113.833 482.333,76.1667 483,38.5C 486.433,23.0625 495.6,12.5625 510.5,7C 523.955,2.58315 537.622,0.0831453 551.5,-0.5 Z M 554.5,39.5 C 563.98,39.1976 572.98,41.0309 581.5,45C 583.43,47.2583 584.93,49.7583 586,52.5C 586.667,80.8333 586.667,109.167 586,137.5C 584.99,141.843 582.49,145.01 578.5,147C 565.167,151.667 551.833,151.667 538.5,147C 534.51,145.01 532.01,141.843 531,137.5C 530.333,109.167 530.333,80.8333 531,52.5C 532.474,47.0264 535.974,43.5264 541.5,42C 545.965,41.1259 550.298,40.2926 554.5,39.5 Z"/></g>
<g><path style="opacity:0.979" fill="#000000" d="M 1087.5,-0.5 C 1092.5,-0.5 1097.5,-0.5 1102.5,-0.5C 1118.63,0.0743962 1134.63,2.40773 1150.5,6.5C 1151.65,18.454 1151.81,30.454 1151,42.5C 1150.48,43.5156 1149.65,44.1822 1148.5,44.5C 1125.65,39.6507 1102.65,38.4841 1079.5,41C 1075.67,42.1667 1073.17,44.6667 1072,48.5C 1071.17,53.5893 1071.51,58.5893 1073,63.5C 1075.08,65.1233 1077.25,66.6233 1079.5,68C 1099.32,74.6059 1118.98,81.6059 1138.5,89C 1146.11,94.72 1150.77,102.22 1152.5,111.5C 1152.5,126.833 1152.5,142.167 1152.5,157.5C 1148.94,170.231 1140.94,179.065 1128.5,184C 1112.31,189.608 1095.64,191.774 1078.5,190.5C 1060.16,190.82 1041.99,189.486 1024,186.5C 1021.86,173.25 1022.03,160.083 1024.5,147C 1047.67,150.034 1071,151.034 1094.5,150C 1098.95,149.637 1102.12,147.471 1104,143.5C 1104.67,137.5 1104.67,131.5 1104,125.5C 1103.63,124.584 1103.13,123.75 1102.5,123C 1083.45,115.54 1064.12,108.874 1044.5,103C 1031.09,97.361 1024.25,87.1944 1024,72.5C 1023.33,60.5 1023.33,48.5 1024,36.5C 1027.08,21.4141 1035.91,11.2474 1050.5,6C 1062.72,2.37733 1075.06,0.210667 1087.5,-0.5 Z"/></g>
<g><path style="opacity:0.98" fill="#000000" d="M 660.5,2.5 C 672.838,2.33346 685.171,2.50012 697.5,3C 699.9,3.18584 702.234,3.68584 704.5,4.5C 718,30.8333 731.5,57.1667 745,83.5C 758.961,57.0787 772.794,30.5787 786.5,4C 803.149,2.1852 819.815,2.01853 836.5,3.5C 836.5,64.8333 836.5,126.167 836.5,187.5C 820.5,188.833 804.5,188.833 788.5,187.5C 788.667,154.498 788.5,121.498 788,88.5C 779.588,104.992 770.921,121.325 762,137.5C 750.67,140.13 739.337,140.13 728,137.5C 719.333,120.833 710.667,104.167 702,87.5C 701.5,120.832 701.333,154.165 701.5,187.5C 685.504,188.816 669.504,188.816 653.5,187.5C 653.5,126.167 653.5,64.8333 653.5,3.5C 656.059,3.80155 658.393,3.46822 660.5,2.5 Z"/></g>
<g><path style="opacity:0.979" fill="#000000" d="M 863.5,2.5 C 877.522,2.27842 891.522,2.61176 905.5,3.5C 905.333,48.1679 905.5,92.8346 906,137.5C 907.5,143 911,146.5 916.5,148C 930.233,151.782 943.566,150.782 956.5,145C 958.377,142.749 959.877,140.249 961,137.5C 961.5,92.8346 961.667,48.1679 961.5,3.5C 977.503,2.18453 993.503,2.18453 1009.5,3.5C 1009.67,51.1678 1009.5,98.8345 1009,146.5C 1007.12,164.76 997.616,177.26 980.5,184C 965.265,189.196 949.598,191.363 933.5,190.5C 916.302,191.434 899.636,188.934 883.5,183C 869.392,176.56 860.892,165.727 858,150.5C 857.5,101.501 857.333,52.5011 857.5,3.5C 859.735,3.79472 861.735,3.46138 863.5,2.5 Z"/></g>
<g><path style="opacity:0.98" fill="#000000" d="M -0.5,193.5 C -0.5,183.833 -0.5,174.167 -0.5,164.5C 0.389841,153.973 3.88984,144.306 10,135.5C 17.7265,129.053 25.8931,123.22 34.5,118C 36.7744,116.235 38.4411,114.068 39.5,111.5C 33.2419,107.025 26.9086,102.525 20.5,98C 4.39716,80.407 0.230496,60.2403 8,37.5C 22.4249,9.04127 45.2582,-1.45873 76.5,6C 104.219,17.5875 116.385,38.4209 113,68.5C 109.502,84.5065 100.835,96.8398 87,105.5C 86.3698,107.903 87.2031,109.737 89.5,111C 99.9,116.511 110.9,119.011 122.5,118.5C 120.157,96.354 127.823,78.5207 145.5,65C 172.269,50.9889 195.769,55.1556 216,77.5C 228.948,98.7457 228.615,119.746 215,140.5C 211.118,144.046 207.618,147.879 204.5,152C 210.14,154.45 215.807,157.117 221.5,160C 225.458,163.421 228.292,167.588 230,172.5C 234.445,214.568 219.611,247.734 185.5,272C 162.091,286.646 146.591,280.812 139,254.5C 137.574,249.243 138.741,244.743 142.5,241C 161.159,230.923 177.659,218.09 192,202.5C 197.361,194.93 199.527,186.597 198.5,177.5C 186.149,190.31 171.482,199.81 154.5,206C 149.051,208.279 143.384,209.446 137.5,209.5C 137.34,207.801 137.506,206.134 138,204.5C 154.952,192.65 160.619,176.65 155,156.5C 144.417,135.297 127.584,127.797 104.5,134C 83.8966,144.042 76.3966,160.209 82,182.5C 85.4967,191.662 91.4967,198.662 100,203.5C 100.494,205.134 100.66,206.801 100.5,208.5C 77.0956,205.63 56.0956,196.964 37.5,182.5C 37.2253,193.128 41.2253,201.961 49.5,209C 65.8238,220.497 82.4905,231.497 99.5,242C 102.741,246.543 103.241,251.376 101,256.5C 93.3163,280.732 78.483,286.232 56.5,273C 39.1731,263.338 24.6731,250.505 13,234.5C 5.55213,221.658 1.05213,207.991 -0.5,193.5 Z"/></g>
<g><path style="opacity:0.985" fill="#000000" d="M 317.5,3.5 C 346.835,3.33335 376.169,3.50002 405.5,4C 420.804,4.74112 435.138,8.74112 448.5,16C 456.827,21.8124 462.327,29.6457 465,39.5C 466.127,58.1308 466.627,76.7974 466.5,95.5C 466.627,114.203 466.127,132.869 465,151.5C 460.121,167.378 449.621,177.544 433.5,182C 424.359,184.746 415.026,186.412 405.5,187C 376.169,187.5 346.835,187.667 317.5,187.5C 317.5,126.167 317.5,64.8333 317.5,3.5 Z M 365.5,43.5 C 375.506,43.3335 385.506,43.5002 395.5,44C 401.588,44.2717 407.255,45.9383 412.5,49C 415.231,51.6259 417.064,54.7926 418,58.5C 418.667,83.1667 418.667,107.833 418,132.5C 415.147,140.695 409.314,145.195 400.5,146C 388.838,146.5 377.171,146.667 365.5,146.5C 365.5,112.167 365.5,77.8333 365.5,43.5 Z"/></g>
<g><path style="opacity:0.927" fill="#000000" d="M 1002.5,211.5 C 1006.83,211.5 1011.17,211.5 1015.5,211.5C 1015.5,235.5 1015.5,259.5 1015.5,283.5C 1011.5,283.5 1007.5,283.5 1003.5,283.5C 1003.66,281.473 1003.5,279.473 1003,277.5C 1002.53,278.931 1001.7,280.097 1000.5,281C 991.969,285.097 983.303,285.43 974.5,282C 972.083,280.337 970.25,278.171 969,275.5C 968.333,263.5 968.333,251.5 969,239.5C 972.736,232.714 978.569,229.714 986.5,230.5C 992.462,229.944 997.629,231.611 1002,235.5C 1002.5,227.507 1002.67,219.507 1002.5,211.5 Z M 985.5,241.5 C 989.182,241.335 992.848,241.501 996.5,242C 999,243.167 1000.83,245 1002,247.5C 1002.67,253.833 1002.67,260.167 1002,266.5C 998.952,272.306 994.119,274.472 987.5,273C 985.152,272.654 983.319,271.487 982,269.5C 979.759,260.706 980.092,252.039 983,243.5C 983.995,242.934 984.828,242.267 985.5,241.5 Z"/></g>
<g><path style="opacity:0.892" fill="#000000" d="M 1025.5,212.5 C 1030.17,212.5 1034.83,212.5 1039.5,212.5C 1039.5,216.167 1039.5,219.833 1039.5,223.5C 1034.83,223.5 1030.17,223.5 1025.5,223.5C 1025.5,219.833 1025.5,216.167 1025.5,212.5 Z"/></g>
<g><path style="opacity:0.923" fill="#000000" d="M 338.5,214.5 C 346.541,214.336 354.541,214.836 362.5,216C 363.416,216.374 364.25,216.874 365,217.5C 365.667,220.167 365.667,222.833 365,225.5C 356.921,225.64 348.755,225.806 340.5,226C 337.542,226.229 335.042,227.396 333,229.5C 331.394,241.762 331.061,254.096 332,266.5C 334.126,270.816 337.626,272.983 342.5,273C 349.969,273.433 357.302,272.6 364.5,270.5C 365.921,274.027 366.588,277.694 366.5,281.5C 355.273,284.547 343.94,285.047 332.5,283C 327.165,281.759 322.998,278.926 320,274.5C 318.38,258.901 318.047,243.234 319,227.5C 319.606,224.452 321.106,221.952 323.5,220C 328.266,217.248 333.266,215.414 338.5,214.5 Z"/></g>
<g><path style="opacity:0.937" fill="#000000" d="M 484.5,218.5 C 488.5,218.5 492.5,218.5 496.5,218.5C 496.5,222.833 496.5,227.167 496.5,231.5C 501.833,231.5 507.167,231.5 512.5,231.5C 512.5,235.167 512.5,238.833 512.5,242.5C 507.167,242.5 501.833,242.5 496.5,242.5C 496.334,250.174 496.5,257.841 497,265.5C 497.167,271.332 500.167,273.999 506,273.5C 508.187,273.212 510.354,272.878 512.5,272.5C 512.5,276.167 512.5,279.833 512.5,283.5C 505.017,285.185 497.684,284.685 490.5,282C 489,280.5 487.5,279 486,277.5C 484.564,265.91 484.064,254.243 484.5,242.5C 481.552,242.777 478.719,242.444 476,241.5C 475.502,238.518 475.335,235.518 475.5,232.5C 478.545,232.492 481.545,232.159 484.5,231.5C 484.5,227.167 484.5,222.833 484.5,218.5 Z"/></g>
<g><path style="opacity:0.931" fill="#000000" d="M 386.5,230.5 C 410.736,227.069 420.736,237.403 416.5,261.5C 405.833,261.5 395.167,261.5 384.5,261.5C 384.467,270.793 389.134,274.793 398.5,273.5C 403.572,273.241 408.572,272.574 413.5,271.5C 414.489,275.107 414.823,278.774 414.5,282.5C 403.106,285.186 391.773,285.019 380.5,282C 375.766,279.596 372.933,275.763 372,270.5C 371.105,260.439 371.438,250.439 373,240.5C 375.663,234.594 380.163,231.261 386.5,230.5 Z M 389.5,241.5 C 399.443,238.801 404.443,242.468 404.5,252.5C 397.798,252.336 391.131,252.669 384.5,253.5C 383.865,248.372 385.532,244.372 389.5,241.5 Z"/></g>
<g><path style="opacity:0.94" fill="#000000" d="M 446.5,230.5 C 452.577,230.196 458.577,230.696 464.5,232C 467.333,233.5 469.5,235.667 471,238.5C 472.434,253.442 472.934,268.442 472.5,283.5C 468.167,283.5 463.833,283.5 459.5,283.5C 459.667,271.495 459.5,259.495 459,247.5C 457.457,242.722 454.124,240.722 449,241.5C 443.378,240.809 439.711,243.142 438,248.5C 437.5,260.162 437.333,271.829 437.5,283.5C 433.5,283.5 429.5,283.5 425.5,283.5C 425.5,266.167 425.5,248.833 425.5,231.5C 429.167,231.5 432.833,231.5 436.5,231.5C 436.338,233.527 436.505,235.527 437,237.5C 437.465,236.069 438.299,234.903 439.5,234C 441.925,232.787 444.259,231.621 446.5,230.5 Z"/></g>
<g><path style="opacity:0.92" fill="#000000" d="M 539.5,230.5 C 542.167,230.5 544.833,230.5 547.5,230.5C 547.5,234.167 547.5,237.833 547.5,241.5C 540.439,240.456 534.939,242.79 531,248.5C 530.5,260.162 530.333,271.829 530.5,283.5C 526.167,283.5 521.833,283.5 517.5,283.5C 517.5,266.167 517.5,248.833 517.5,231.5C 521.167,231.5 524.833,231.5 528.5,231.5C 528.551,237.374 529.884,238.207 532.5,234C 534.925,232.787 537.259,231.621 539.5,230.5 Z"/></g>
<g><path style="opacity:0.926" fill="#000000" d="M 630.5,230.5 C 637.061,229.919 643.395,230.752 649.5,233C 651,234.5 652.5,236 654,237.5C 656.365,234.131 659.532,231.964 663.5,231C 670.385,229.902 677.051,230.569 683.5,233C 685.378,234.543 686.878,236.376 688,238.5C 688.5,253.496 688.667,268.496 688.5,283.5C 684.5,283.5 680.5,283.5 676.5,283.5C 676.667,271.829 676.5,260.162 676,248.5C 675.03,243.001 671.697,240.668 666,241.5C 660.913,240.706 657.58,242.706 656,247.5C 655.5,259.495 655.333,271.495 655.5,283.5C 651.167,283.5 646.833,283.5 642.5,283.5C 642.667,271.162 642.5,258.829 642,246.5C 640.44,242.278 637.44,240.611 633,241.5C 627.34,240.824 623.674,243.157 622,248.5C 621.5,260.162 621.333,271.829 621.5,283.5C 617.167,283.5 612.833,283.5 608.5,283.5C 608.5,266.167 608.5,248.833 608.5,231.5C 612.5,231.5 616.5,231.5 620.5,231.5C 620.338,233.527 620.505,235.527 621,237.5C 623.086,233.555 626.253,231.221 630.5,230.5 Z"/></g>
<g><path style="opacity:0.924" fill="#000000" d="M 730.5,304.5 C 726.167,304.5 721.833,304.5 717.5,304.5C 717.167,280.158 717.5,255.824 718.5,231.5C 724.297,228.995 728.131,230.662 730,236.5C 732.1,233.533 734.934,231.7 738.5,231C 745.385,229.902 752.051,230.569 758.5,233C 761.135,234.961 762.969,237.461 764,240.5C 764.667,251.5 764.667,262.5 764,273.5C 762.932,278.235 760.099,281.402 755.5,283C 749.167,285 742.833,285 736.5,283C 733.898,282.117 731.731,280.617 730,278.5C 730.409,287.108 730.576,295.774 730.5,304.5 Z M 735.5,241.5 C 739.514,241.334 743.514,241.501 747.5,242C 749.049,243.214 750.215,244.714 751,246.5C 751.667,253.833 751.667,261.167 751,268.5C 750.535,269.931 749.701,271.097 748.5,272C 743.833,274 739.167,274 734.5,272C 732.951,270.786 731.785,269.286 731,267.5C 730.333,260.5 730.333,253.5 731,246.5C 732.059,244.341 733.559,242.674 735.5,241.5 Z"/></g>
<g><path style="opacity:0.915" fill="#000000" d="M 795.5,230.5 C 798.448,230.223 801.281,230.556 804,231.5C 804.667,234.5 804.667,237.5 804,240.5C 800.207,241.331 796.373,242.164 792.5,243C 790.083,244.663 788.25,246.829 787,249.5C 786.5,260.828 786.333,272.162 786.5,283.5C 782.167,283.5 777.833,283.5 773.5,283.5C 773.5,266.167 773.5,248.833 773.5,231.5C 777.5,231.5 781.5,231.5 785.5,231.5C 785.338,233.527 785.505,235.527 786,237.5C 788.393,234.06 791.56,231.726 795.5,230.5 Z"/></g>
<g><path style="opacity:0.926" fill="#000000" d="M 821.5,230.5 C 830.473,229.701 839.14,230.868 847.5,234C 849.378,235.543 850.878,237.376 852,239.5C 853.595,250.093 853.928,260.76 853,271.5C 852.184,276.631 849.351,280.131 844.5,282C 833.215,285.731 822.215,285.064 811.5,280C 809.951,278.786 808.785,277.286 808,275.5C 806.403,264.573 806.069,253.573 807,242.5C 809.319,235.339 814.153,231.339 821.5,230.5 Z M 824.5,241.5 C 828.182,241.335 831.848,241.501 835.5,242C 837.667,242.833 839.167,244.333 840,246.5C 840.667,253.833 840.667,261.167 840,268.5C 839.5,270.333 838.333,271.5 836.5,272C 831.85,273.909 827.184,273.909 822.5,272C 821.299,271.097 820.465,269.931 820,268.5C 819.333,261.167 819.333,253.833 820,246.5C 821.025,244.313 822.525,242.646 824.5,241.5 Z"/></g>
<g><path style="opacity:0.913" fill="#000000" d="M 903.5,230.5 C 906.167,230.5 908.833,230.5 911.5,230.5C 911.5,234.167 911.5,237.833 911.5,241.5C 903.35,240.257 897.517,243.257 894,250.5C 893.5,261.495 893.333,272.495 893.5,283.5C 889.167,283.5 884.833,283.5 880.5,283.5C 880.5,266.167 880.5,248.833 880.5,231.5C 884.5,231.5 888.5,231.5 892.5,231.5C 892.337,233.857 892.503,236.19 893,238.5C 895.271,234.044 898.771,231.378 903.5,230.5 Z"/></g>
<g><path style="opacity:0.925" fill="#000000" d="M 928.5,230.5 C 935.896,230.2 943.229,230.7 950.5,232C 955,233.833 958.167,237 960,241.5C 960.667,251.833 960.667,262.167 960,272.5C 958.932,277.235 956.099,280.402 951.5,282C 939.656,285.984 928.323,284.984 917.5,279C 916.54,277.581 915.707,276.081 915,274.5C 913,262.833 913,251.167 915,239.5C 918.144,234.353 922.644,231.353 928.5,230.5 Z M 931.5,241.5 C 935.182,241.335 938.848,241.501 942.5,242C 944.286,242.785 945.786,243.951 947,245.5C 947.667,253.167 947.667,260.833 947,268.5C 944.972,272.134 941.806,273.8 937.5,273.5C 934.034,273.4 930.868,272.4 928,270.5C 926.432,262.579 926.099,254.579 927,246.5C 928.025,244.313 929.525,242.646 931.5,241.5 Z"/></g>
<g><path style="opacity:0.932" fill="#000000" d="M 1071.5,230.5 C 1077.58,230.196 1083.58,230.696 1089.5,232C 1092.33,233.5 1094.5,235.667 1096,238.5C 1096.5,253.496 1096.67,268.496 1096.5,283.5C 1092.5,283.5 1088.5,283.5 1084.5,283.5C 1084.67,271.829 1084.5,260.162 1084,248.5C 1082.98,242.981 1079.64,240.648 1074,241.5C 1068.34,240.824 1064.67,243.157 1063,248.5C 1062.5,260.162 1062.33,271.829 1062.5,283.5C 1058.17,283.5 1053.83,283.5 1049.5,283.5C 1049.5,266.167 1049.5,248.833 1049.5,231.5C 1053.5,231.5 1057.5,231.5 1061.5,231.5C 1061.34,233.527 1061.5,235.527 1062,237.5C 1064.09,233.555 1067.25,231.221 1071.5,230.5 Z"/></g>
<g><path style="opacity:0.923" fill="#000000" d="M 550.5,231.5 C 554.833,231.5 559.167,231.5 563.5,231.5C 563.333,243.171 563.5,254.838 564,266.5C 565.372,271.527 568.705,273.86 574,273.5C 579.364,273.66 583.031,271.327 585,266.5C 585.5,254.838 585.667,243.171 585.5,231.5C 589.833,231.5 594.167,231.5 598.5,231.5C 598.5,248.833 598.5,266.167 598.5,283.5C 594.5,283.5 590.5,283.5 586.5,283.5C 586.662,281.473 586.495,279.473 586,277.5C 581.577,282.538 575.91,284.871 569,284.5C 559.118,285.249 553.118,280.915 551,271.5C 550.5,258.171 550.333,244.837 550.5,231.5 Z"/></g>
<g><path style="opacity:0.982" fill="#000000" d="M 1026.5,231.5 C 1030.5,231.5 1034.5,231.5 1038.5,231.5C 1038.5,248.833 1038.5,266.167 1038.5,283.5C 1034.5,283.5 1030.5,283.5 1026.5,283.5C 1026.5,266.167 1026.5,248.833 1026.5,231.5 Z"/></g>
<g><path style="opacity:0.925" fill="#000000" d="M 1152.5,231.5 C 1152.5,248.833 1152.5,266.167 1152.5,283.5C 1148.83,283.5 1145.17,283.5 1141.5,283.5C 1141.71,277.376 1140.04,276.876 1136.5,282C 1129.27,284.767 1121.94,285.1 1114.5,283C 1109.45,281.283 1106.62,277.783 1106,272.5C 1105.5,258.837 1105.33,245.171 1105.5,231.5C 1109.83,231.5 1114.17,231.5 1118.5,231.5C 1118.33,243.505 1118.5,255.505 1119,267.5C 1120.91,271.708 1124.24,273.708 1129,273.5C 1133.21,273.543 1136.54,271.877 1139,268.5C 1139.5,256.171 1139.67,243.838 1139.5,231.5C 1143.83,231.5 1148.17,231.5 1152.5,231.5 Z"/></g>
</svg>
