<?xml version="1.0" encoding="UTF-8"?>
<!DOCTYPE svg PUBLIC "-//W3C//DTD SVG 1.1//EN" "http://www.w3.org/Graphics/SVG/1.1/DTD/svg11.dtd">
<svg xmlns="http://www.w3.org/2000/svg" version="1.1" width="1153px" height="305px" style="shape-rendering:geometricPrecision; text-rendering:geometricPrecision; image-rendering:optimizeQuality; fill-rule:evenodd; clip-rule:evenodd" xmlns:xlink="http://www.w3.org/1999/xlink">
<g><path style="opacity:0.983" fill="#fefffe" d="M 550.5,-0.5 C 555.5,-0.5 560.5,-0.5 565.5,-0.5C 579.371,0.0823466 593.037,2.58235 606.5,7C 622.169,12.843 631.336,24.0097 634,40.5C 634.667,76.8333 634.667,113.167 634,149.5C 632.167,163.674 625,174.174 612.5,181C 595.142,188.609 576.975,191.776 558,190.5C 537.744,191.876 518.578,188.042 500.5,179C 489.035,171.243 482.869,160.41 482,146.5C 481.333,112.5 481.333,78.5 482,44.5C 483.464,27.4018 491.964,15.2352 507.5,8C 521.498,2.80098 535.832,-0.032355 550.5,-0.5 Z M 554.5,39.5 C 561.565,39.8065 568.565,40.6398 575.5,42C 580.757,44.2563 584.257,48.0896 586,53.5C 586.667,81.1667 586.667,108.833 586,136.5C 584.151,144.023 579.317,148.19 571.5,149C 559.507,151.37 547.84,150.37 536.5,146C 532.618,142.736 530.451,138.57 530,133.5C 529.044,106.126 529.377,78.7926 531,51.5C 532.061,48.4384 533.894,45.9384 536.5,44C 542.361,41.3994 548.361,39.8994 554.5,39.5 Z"/></g>
<g><path style="opacity:0.979" fill="#fefffe" d="M 1086.5,-0.5 C 1091.83,-0.5 1097.17,-0.5 1102.5,-0.5C 1118.48,0.497548 1134.48,2.49755 1150.5,5.5C 1151.83,18.5 1151.83,31.5 1150.5,44.5C 1126.66,39.6802 1102.66,38.5135 1078.5,41C 1072.53,43.2739 1070.19,47.6072 1071.5,54C 1070.74,58.7776 1072.07,62.7776 1075.5,66C 1093.27,72.9248 1111.27,79.2582 1129.5,85C 1143.37,90.0326 1151.04,99.8659 1152.5,114.5C 1152.5,128.167 1152.5,141.833 1152.5,155.5C 1149.13,170.352 1140.13,180.186 1125.5,185C 1118.01,187.432 1110.34,189.099 1102.5,190C 1086.5,190.667 1070.5,190.667 1054.5,190C 1044.21,189.486 1034.04,188.32 1024,186.5C 1022.19,173.193 1022.02,159.86 1023.5,146.5C 1047.04,150.015 1070.7,151.182 1094.5,150C 1099.15,149.27 1102.32,146.77 1104,142.5C 1104.67,137.167 1104.67,131.833 1104,126.5C 1103.22,124.714 1102.05,123.214 1100.5,122C 1079.44,114.867 1058.44,107.534 1037.5,100C 1029.25,94.01 1024.75,85.8433 1024,75.5C 1023.33,61.8333 1023.33,48.1667 1024,34.5C 1026.76,23.081 1033.26,14.581 1043.5,9C 1057.35,3.06572 1071.68,-0.100951 1086.5,-0.5 Z"/></g>
<g><path style="opacity:0.982" fill="#fefffe" d="M 659.5,2.5 C 674.211,2.10632 688.878,2.60632 703.5,4C 717.206,30.5787 731.039,57.0787 745,83.5C 758.451,56.7638 772.284,30.2638 786.5,4C 803.143,2.18375 819.809,2.01708 836.5,3.5C 836.5,64.8333 836.5,126.167 836.5,187.5C 820.496,188.816 804.496,188.816 788.5,187.5C 788.667,154.165 788.5,120.832 788,87.5C 779.333,104.167 770.667,120.833 762,137.5C 750.663,140.13 739.33,140.13 728,137.5C 719.079,121.325 710.412,104.992 702,88.5C 701.5,121.498 701.333,154.498 701.5,187.5C 685.496,188.816 669.496,188.816 653.5,187.5C 653.5,126.167 653.5,64.8333 653.5,3.5C 655.735,3.79472 657.735,3.46138 659.5,2.5 Z"/></g>
<g><path style="opacity:0.979" fill="#fefffe" d="M 862.5,2.5 C 876.855,2.2754 891.188,2.60873 905.5,3.5C 905.333,48.5012 905.5,93.5012 906,138.5C 907.442,142.275 909.942,145.108 913.5,147C 927.316,151.833 940.983,151.5 954.5,146C 958.325,143.512 960.492,140.012 961,135.5C 961.5,91.5013 961.667,47.5013 961.5,3.5C 977.174,2.20233 992.84,2.20233 1008.5,3.5C 1008.67,52.8345 1008.5,102.168 1008,151.5C 1005.07,166.545 996.567,177.045 982.5,183C 966.543,188.891 950.043,191.391 933,190.5C 915.957,191.391 899.457,188.891 883.5,183C 866.836,175.652 858.002,162.819 857,144.5C 856.5,97.5012 856.333,50.5012 856.5,3.5C 858.735,3.79472 860.735,3.46138 862.5,2.5 Z"/></g>
<g><path style="opacity:0.98" fill="#fefffe" d="M -0.5,197.5 C -0.5,185.5 -0.5,173.5 -0.5,161.5C 1.08131,146.183 8.41465,134.35 21.5,126C 26.4352,123.394 31.1019,120.394 35.5,117C 37.448,115.561 38.7814,113.728 39.5,111.5C 39.1667,110.833 38.8333,110.167 38.5,109.5C 16.6909,99.5727 5.02425,82.5727 3.5,58.5C 5.01277,30.8247 19.0128,12.9914 45.5,5C 70.4634,0.243499 90.2968,8.07683 105,28.5C 120.641,60.2317 114.141,86.3984 85.5,107C 87.1935,109.69 89.5268,111.69 92.5,113C 101.854,116.757 111.521,118.757 121.5,119C 119.722,97.9787 126.722,80.6453 142.5,67C 168.576,50.9292 192.41,53.7625 214,75.5C 232.036,103.982 228.536,129.482 203.5,152C 211.435,154.385 218.602,158.218 225,163.5C 229.678,169.538 231.511,176.372 230.5,184C 230.568,227.244 211.568,258.577 173.5,278C 167.903,279.456 162.237,279.789 156.5,279C 153.241,277.789 150.408,275.956 148,273.5C 144.473,267.779 141.473,261.779 139,255.5C 137.184,249.222 138.684,244.055 143.5,240C 160.991,230.851 176.491,219.018 190,204.5C 196.578,196.452 199.245,187.452 198,177.5C 181.437,195.03 161.271,205.53 137.5,209C 136.253,207.542 136.253,206.042 137.5,204.5C 155.981,191.261 161.147,173.928 153,152.5C 140.413,133.391 123.246,127.557 101.5,135C 84.9602,143.911 77.7936,157.745 80,176.5C 82.5326,188.566 89.1993,197.566 100,203.5C 100.72,205.112 100.554,206.612 99.5,208C 89.0285,207.96 79.0285,205.627 69.5,201C 57.3762,196.52 46.5429,190.02 37,181.5C 36.8225,193.693 41.6558,203.527 51.5,211C 65.99,221.415 80.99,231.081 96.5,240C 101.316,244.055 102.816,249.222 101,255.5C 98.3209,263.029 94.4875,269.863 89.5,276C 80.2353,280.523 70.902,280.523 61.5,276C 41.6083,265.774 25.1083,251.608 12,233.5C 5.7037,222.106 1.53703,210.106 -0.5,197.5 Z"/></g>
<g><path style="opacity:0.984" fill="#fefffe" d="M 317.5,3.5 C 346.502,3.33336 375.502,3.50002 404.5,4C 422.553,4.35144 438.886,9.68477 453.5,20C 459.291,26.0795 463.124,33.2462 465,41.5C 466.117,59.4679 466.617,77.4679 466.5,95.5C 466.617,113.532 466.117,131.532 465,149.5C 459.75,167.411 447.917,178.578 429.5,183C 421.609,184.982 413.609,186.315 405.5,187C 376.169,187.5 346.835,187.667 317.5,187.5C 317.5,126.167 317.5,64.8333 317.5,3.5 Z M 365.5,43.5 C 375.506,43.3335 385.506,43.5002 395.5,44C 403.896,44.1171 410.729,47.2838 416,53.5C 416.92,56.1013 417.587,58.7679 418,61.5C 418.667,84.1667 418.667,106.833 418,129.5C 416.32,139.839 410.153,145.339 399.5,146C 388.172,146.5 376.838,146.667 365.5,146.5C 365.5,112.167 365.5,77.8333 365.5,43.5 Z"/></g>
<g><path style="opacity:0.949" fill="#fefffe" d="M 1002.5,211.5 C 1006.5,211.5 1010.5,211.5 1014.5,211.5C 1014.5,235.5 1014.5,259.5 1014.5,283.5C 1010.83,283.5 1007.17,283.5 1003.5,283.5C 1003.71,277.376 1002.04,276.876 998.5,282C 975.126,289.503 964.793,281.17 967.5,257C 964.228,236.272 972.894,227.606 993.5,231C 997.142,231.728 999.975,233.562 1002,236.5C 1002.5,228.173 1002.67,219.84 1002.5,211.5 Z M 985.5,241.5 C 989.182,241.335 992.848,241.501 996.5,242C 999.381,243.251 1001.21,245.417 1002,248.5C 1002.67,254.167 1002.67,259.833 1002,265.5C 999.105,272.368 993.938,274.868 986.5,273C 983.667,272.167 981.833,270.333 981,267.5C 980.333,260.833 980.333,254.167 981,247.5C 981.599,244.746 983.099,242.746 985.5,241.5 Z"/></g>
<g><path style="opacity:0.903" fill="#fefffe" d="M 1025.5,212.5 C 1030.17,212.5 1034.83,212.5 1039.5,212.5C 1039.75,215.909 1039.42,219.242 1038.5,222.5C 1034.22,223.492 1029.88,223.826 1025.5,223.5C 1025.5,219.833 1025.5,216.167 1025.5,212.5 Z"/></g>
<g><path style="opacity:0.916" fill="#fefffe" d="M 338.5,214.5 C 346.541,214.336 354.541,214.836 362.5,216C 364.362,219.149 365.029,222.649 364.5,226.5C 356.182,225.593 347.849,225.427 339.5,226C 335.98,226.504 333.48,228.337 332,231.5C 331.333,243.5 331.333,255.5 332,267.5C 332.374,268.416 332.874,269.25 333.5,270C 343.371,274.299 353.371,274.466 363.5,270.5C 364.086,270.709 364.586,271.043 365,271.5C 365.498,274.817 365.665,278.15 365.5,281.5C 351.62,285.979 337.953,285.479 324.5,280C 321.894,278.062 320.061,275.562 319,272.5C 317,257.167 317,241.833 319,226.5C 320.061,223.438 321.894,220.938 324.5,219C 329.002,216.553 333.669,215.053 338.5,214.5 Z"/></g>
<g><path style="opacity:0.922" fill="#fefffe" d="M 483.5,218.5 C 487.833,218.5 492.167,218.5 496.5,218.5C 496.5,222.833 496.5,227.167 496.5,231.5C 501.5,231.5 506.5,231.5 511.5,231.5C 512.833,235.167 512.833,238.833 511.5,242.5C 506.5,242.5 501.5,242.5 496.5,242.5C 496.083,251.915 496.583,261.248 498,270.5C 502.051,273.722 506.551,274.389 511.5,272.5C 512.833,276.167 512.833,279.833 511.5,283.5C 502.674,285.69 494.507,284.357 487,279.5C 485.725,277.283 484.725,274.949 484,272.5C 483.5,262.506 483.334,252.506 483.5,242.5C 480.833,242.5 478.167,242.5 475.5,242.5C 475.5,239.167 475.5,235.833 475.5,232.5C 477.92,232.708 480.253,232.374 482.5,231.5C 483.492,227.217 483.826,222.884 483.5,218.5 Z"/></g>
<g><path style="opacity:0.927" fill="#fefffe" d="M 385.5,230.5 C 391.176,230.334 396.843,230.501 402.5,231C 409.862,232.094 414.362,236.261 416,243.5C 416.499,249.491 416.666,255.491 416.5,261.5C 405.833,261.5 395.167,261.5 384.5,261.5C 384.11,271.012 388.776,275.012 398.5,273.5C 403.881,273.112 409.214,272.445 414.5,271.5C 414.5,275.167 414.5,278.833 414.5,282.5C 403.099,285.119 391.765,284.953 380.5,282C 375.901,280.402 373.068,277.235 372,272.5C 371.333,262.5 371.333,252.5 372,242.5C 374.196,235.798 378.696,231.798 385.5,230.5 Z M 388.5,241.5 C 392.967,241.133 397.3,241.633 401.5,243C 403.34,245.826 404.006,248.993 403.5,252.5C 397.122,252.295 390.789,252.628 384.5,253.5C 383.589,248.633 384.922,244.633 388.5,241.5 Z"/></g>
<g><path style="opacity:0.927" fill="#fefffe" d="M 446.5,230.5 C 453.877,229.689 460.877,230.856 467.5,234C 469.041,235.579 470.208,237.413 471,239.5C 471.5,254.163 471.667,268.83 471.5,283.5C 467.167,283.5 462.833,283.5 458.5,283.5C 458.667,270.829 458.5,258.162 458,245.5C 456.028,242.111 453.028,240.778 449,241.5C 443.875,240.895 440.208,242.895 438,247.5C 437.5,259.495 437.333,271.495 437.5,283.5C 433.167,283.5 428.833,283.5 424.5,283.5C 424.5,266.167 424.5,248.833 424.5,231.5C 428.5,231.5 432.5,231.5 436.5,231.5C 436.338,233.527 436.505,235.527 437,237.5C 439.086,233.555 442.253,231.221 446.5,230.5 Z"/></g>
<g><path style="opacity:0.914" fill="#fefffe" d="M 539.5,230.5 C 542.167,230.5 544.833,230.5 547.5,230.5C 547.5,234.167 547.5,237.833 547.5,241.5C 539.35,240.257 533.517,243.257 530,250.5C 529.5,261.495 529.333,272.495 529.5,283.5C 525.167,283.5 520.833,283.5 516.5,283.5C 516.5,266.167 516.5,248.833 516.5,231.5C 520.5,231.5 524.5,231.5 528.5,231.5C 528.337,233.857 528.503,236.19 529,238.5C 531.271,234.044 534.771,231.378 539.5,230.5 Z"/></g>
<g><path style="opacity:0.918" fill="#fefffe" d="M 630.5,230.5 C 636.262,230.149 641.928,230.649 647.5,232C 650.333,233.5 652.5,235.667 654,238.5C 655.679,234.23 658.845,231.73 663.5,231C 670.871,229.69 677.871,230.69 684.5,234C 686.041,235.579 687.208,237.413 688,239.5C 688.5,254.163 688.667,268.83 688.5,283.5C 684.167,283.5 679.833,283.5 675.5,283.5C 675.667,270.829 675.5,258.162 675,245.5C 673.028,242.111 670.028,240.778 666,241.5C 661.408,240.796 658.075,242.463 656,246.5C 655.5,258.829 655.333,271.162 655.5,283.5C 651.167,283.5 646.833,283.5 642.5,283.5C 642.667,271.495 642.5,259.495 642,247.5C 640.457,242.722 637.124,240.722 632,241.5C 627.164,241.003 623.831,243.003 622,247.5C 621.5,259.495 621.333,271.495 621.5,283.5C 617.167,283.5 612.833,283.5 608.5,283.5C 608.5,266.167 608.5,248.833 608.5,231.5C 612.182,231.335 615.848,231.501 619.5,232C 620.227,233.399 620.727,234.899 621,236.5C 623.551,233.319 626.718,231.319 630.5,230.5 Z"/></g>
<g><path style="opacity:0.919" fill="#fefffe" d="M 729.5,304.5 C 725.167,304.5 720.833,304.5 716.5,304.5C 716.5,280.167 716.5,255.833 716.5,231.5C 720.5,230.167 724.5,230.167 728.5,231.5C 728.338,233.527 728.505,235.527 729,237.5C 731.169,233.99 734.336,231.823 738.5,231C 759.344,227.679 768.011,236.512 764.5,257.5C 766.542,280.94 756.209,289.107 733.5,282C 732.333,280.833 731.167,279.667 730,278.5C 729.5,287.16 729.334,295.827 729.5,304.5 Z M 735.5,241.5 C 739.182,241.335 742.848,241.501 746.5,242C 747.931,242.465 749.097,243.299 750,244.5C 751.557,251.753 751.89,259.086 751,266.5C 750.705,268.931 749.538,270.764 747.5,272C 739.953,275.149 734.12,273.316 730,266.5C 729.333,260.5 729.333,254.5 730,248.5C 730.967,245.379 732.8,243.046 735.5,241.5 Z"/></g>
<g><path style="opacity:0.92" fill="#fefffe" d="M 795.5,230.5 C 798.167,230.5 800.833,230.5 803.5,230.5C 803.5,234.167 803.5,237.833 803.5,241.5C 796.439,240.456 790.939,242.79 787,248.5C 786.5,260.162 786.333,271.829 786.5,283.5C 782.167,283.5 777.833,283.5 773.5,283.5C 773.5,266.167 773.5,248.833 773.5,231.5C 777.167,231.5 780.833,231.5 784.5,231.5C 784.551,237.374 785.884,238.207 788.5,234C 790.925,232.787 793.259,231.621 795.5,230.5 Z"/></g>
<g><path style="opacity:0.937" fill="#fefffe" d="M 820.5,230.5 C 827.906,230.152 835.239,230.652 842.5,232C 847.206,233.105 850.373,235.938 852,240.5C 852.667,251.833 852.667,263.167 852,274.5C 850.167,277.667 847.667,280.167 844.5,282C 809.975,289.795 797.475,276.295 807,241.5C 807.731,239.101 808.898,236.935 810.5,235C 813.815,233.17 817.149,231.67 820.5,230.5 Z M 823.5,241.5 C 827.514,241.334 831.514,241.501 835.5,242C 836.931,242.465 838.097,243.299 839,244.5C 840.515,251.767 840.848,259.101 840,266.5C 839.654,268.848 838.487,270.681 836.5,272C 830.4,274.552 824.9,273.719 820,269.5C 819.333,261.5 819.333,253.5 820,245.5C 820.69,243.65 821.856,242.316 823.5,241.5 Z"/></g>
<g><path style="opacity:0.911" fill="#fefffe" d="M 902.5,230.5 C 905.167,230.5 907.833,230.5 910.5,230.5C 911.833,234.167 911.833,237.833 910.5,241.5C 905.049,240.779 900.215,242.112 896,245.5C 895.333,246.833 894.667,248.167 894,249.5C 893.5,260.828 893.333,272.162 893.5,283.5C 889.167,283.5 884.833,283.5 880.5,283.5C 880.5,266.167 880.5,248.833 880.5,231.5C 884.182,231.335 887.848,231.501 891.5,232C 892.249,233.734 892.749,235.567 893,237.5C 893.465,236.069 894.299,234.903 895.5,234C 897.925,232.787 900.259,231.621 902.5,230.5 Z"/></g>
<g><path style="opacity:0.921" fill="#fefffe" d="M 928.5,230.5 C 937.473,229.701 946.14,230.868 954.5,234C 956.378,235.543 957.878,237.376 959,239.5C 960.569,250.107 960.903,260.774 960,271.5C 959.169,276.681 956.336,280.181 951.5,282C 940.215,285.731 929.215,285.064 918.5,280C 916.951,278.786 915.785,277.286 915,275.5C 913.4,264.239 913.067,252.906 914,241.5C 916.821,235.023 921.655,231.356 928.5,230.5 Z M 931.5,241.5 C 935.182,241.335 938.848,241.501 942.5,242C 944.667,242.833 946.167,244.333 947,246.5C 947.901,254.579 947.568,262.579 946,270.5C 940.784,273.815 935.284,274.315 929.5,272C 928.299,271.097 927.465,269.931 927,268.5C 926.333,260.833 926.333,253.167 927,245.5C 928.397,243.93 929.897,242.596 931.5,241.5 Z"/></g>
<g><path style="opacity:0.922" fill="#fefffe" d="M 1071.5,230.5 C 1078.88,229.689 1085.88,230.856 1092.5,234C 1094.04,235.579 1095.21,237.413 1096,239.5C 1096.5,254.163 1096.67,268.83 1096.5,283.5C 1092.17,283.5 1087.83,283.5 1083.5,283.5C 1083.67,270.829 1083.5,258.162 1083,245.5C 1081.03,242.111 1078.03,240.778 1074,241.5C 1068.84,240.913 1065.17,242.913 1063,247.5C 1062.5,259.495 1062.33,271.495 1062.5,283.5C 1058.17,283.5 1053.83,283.5 1049.5,283.5C 1049.5,266.167 1049.5,248.833 1049.5,231.5C 1053.18,231.335 1056.85,231.501 1060.5,232C 1061.23,233.399 1061.73,234.899 1062,236.5C 1064.55,233.319 1067.72,231.319 1071.5,230.5 Z"/></g>
<g><path style="opacity:0.924" fill="#fefffe" d="M 550.5,231.5 C 554.833,231.5 559.167,231.5 563.5,231.5C 563.333,243.505 563.5,255.505 564,267.5C 565.685,271.605 568.851,273.605 573.5,273.5C 578.394,273.823 581.894,271.823 584,267.5C 584.5,255.505 584.667,243.505 584.5,231.5C 588.833,231.5 593.167,231.5 597.5,231.5C 597.5,248.833 597.5,266.167 597.5,283.5C 593.833,283.5 590.167,283.5 586.5,283.5C 586.509,281.692 586.009,280.025 585,278.5C 580.561,282.729 575.228,284.729 569,284.5C 562.772,284.729 557.439,282.729 553,278.5C 552.138,276.913 551.471,275.246 551,273.5C 550.5,259.504 550.333,245.504 550.5,231.5 Z"/></g>
<g><path style="opacity:0.907" fill="#fefffe" d="M 1025.5,231.5 C 1029.83,231.5 1034.17,231.5 1038.5,231.5C 1038.5,248.833 1038.5,266.167 1038.5,283.5C 1034.17,283.5 1029.83,283.5 1025.5,283.5C 1025.5,266.167 1025.5,248.833 1025.5,231.5 Z"/></g>
<g><path style="opacity:0.931" fill="#fefffe" d="M 1152.5,231.5 C 1152.5,248.833 1152.5,266.167 1152.5,283.5C 1148.77,283.823 1145.11,283.489 1141.5,282.5C 1140.85,280.885 1140.35,279.218 1140,277.5C 1138.75,280.381 1136.58,282.214 1133.5,283C 1125.55,285.339 1117.89,284.672 1110.5,281C 1109.33,279.833 1108.17,278.667 1107,277.5C 1105.55,262.238 1105.05,246.905 1105.5,231.5C 1109.83,231.5 1114.17,231.5 1118.5,231.5C 1118.33,243.838 1118.5,256.171 1119,268.5C 1120.87,272.027 1123.87,273.693 1128,273.5C 1133.05,273.841 1136.71,271.841 1139,267.5C 1139.5,255.505 1139.67,243.505 1139.5,231.5C 1143.83,231.5 1148.17,231.5 1152.5,231.5 Z"/></g>
</svg>
