<?xml version="1.0" standalone="no"?>
<!DOCTYPE svg PUBLIC "-//W3C//DTD SVG 20010904//EN"
 "http://www.w3.org/TR/2001/REC-SVG-20010904/DTD/svg10.dtd">
<svg version="1.0" xmlns="http://www.w3.org/2000/svg"
 width="512.000000pt" height="512.000000pt" viewBox="0 0 512.000000 512.000000"
 preserveAspectRatio="xMidYMid meet">

<g transform="translate(0.000000,512.000000) scale(0.100000,-0.100000)"
fill="#000000" stroke="none">
<path d="M1375 3740 l-1180 -1180 63 -62 62 -63 1120 1120 1120 1120 1120
-1120 1120 -1120 62 63 63 62 -1180 1180 c-649 649 -1182 1180 -1185 1180 -3
0 -536 -531 -1185 -1180z"/>
<path d="M960 4103 l0 -538 320 320 320 320 0 217 0 218 -320 0 -320 0 0 -537z"/>
<path d="M1597 3472 l-957 -957 0 -1128 0 -1127 320 0 320 0 0 830 0 830 480
0 480 0 0 -830 0 -830 1120 0 1120 0 0 1128 0 1127 -958 958 c-526 526 -959
957 -962 957 -3 0 -436 -431 -963 -958z m2243 -1952 l0 -400 -480 0 -480 0 0
400 0 400 480 0 480 0 0 -400z"/>
</g>
</svg>
