<svg width="515" height="909" viewBox="0 0 515 909" fill="none" xmlns="http://www.w3.org/2000/svg">
<rect width="515" height="909" fill="#F5F5F5"/>
<g clip-path="url(#clip0_0_1)">
<path d="M159.475 320.057C311.414 217.51 321.59 44.5482 449.058 11.2302C576.526 -22.0878 612 70.5542 612 70.5542V834.054C612 834.054 386.913 759.91 277.95 685.591C168.987 611.272 7.53502 422.61 159.475 320.057Z" fill="url(#paint0_linear_0_1)"/>
<path d="M88.0572 332.525C-14.4898 180.586 -187.452 170.41 -220.77 42.942C-254.088 -84.526 -161.446 -120 -161.446 -120H602.054C602.054 -120 527.91 105.087 453.591 214.05C379.272 323.013 190.61 484.465 88.0572 332.525Z" fill="url(#paint1_linear_0_1)"/>
<path d="M245.548 503.502C93.6319 606.084 83.4954 779.048 -43.9651 812.395C-171.425 845.742 -206.921 753.108 -206.921 753.108L-207.095 -10.3919C-207.095 -10.3919 18.0094 63.7008 126.989 137.995C235.969 212.289 397.464 400.914 245.548 503.502Z" fill="url(#paint2_linear_0_1)"/>
<path d="M328.997 504.046C431.544 655.985 604.506 666.161 637.824 793.629C671.142 921.097 578.5 956.571 578.5 956.571H-185C-185 956.571 -110.856 731.484 -36.537 622.521C37.782 513.558 226.444 352.106 328.997 504.046Z" fill="url(#paint3_linear_0_1)"/>
</g>
<defs>
<linearGradient id="paint0_linear_0_1" x1="97.4294" y1="419.027" x2="612" y2="419.027" gradientUnits="userSpaceOnUse">
<stop stop-color="#87154A"/>
<stop offset="1" stop-color="#6444B8"/>
</linearGradient>
<linearGradient id="paint1_linear_0_1" x1="187.027" y1="394.571" x2="187.027" y2="-120" gradientUnits="userSpaceOnUse">
<stop stop-color="#9D4B71"/>
<stop offset="1" stop-color="#4A328A"/>
</linearGradient>
<linearGradient id="paint2_linear_0_1" x1="307.58" y1="444.018" x2="-206.991" y2="444.135" gradientUnits="userSpaceOnUse">
<stop stop-color="#E54F95"/>
<stop offset="1" stop-color="#4A328A"/>
</linearGradient>
<linearGradient id="paint3_linear_0_1" x1="230.027" y1="442" x2="230.027" y2="956.571" gradientUnits="userSpaceOnUse">
<stop stop-color="#87154A"/>
<stop offset="1" stop-color="#6444B8"/>
</linearGradient>
<clipPath id="clip0_0_1">
<rect width="514.569" height="908.903" fill="white"/>
</clipPath>
</defs>
</svg>
