<?xml version="1.0" encoding="UTF-8"?>
<!DOCTYPE svg PUBLIC "-//W3C//DTD SVG 1.1//EN" "http://www.w3.org/Graphics/SVG/1.1/DTD/svg11.dtd">
<svg xmlns="http://www.w3.org/2000/svg" version="1.1" width="1154px" height="305px" style="shape-rendering:geometricPrecision; text-rendering:geometricPrecision; image-rendering:optimizeQuality; fill-rule:evenodd; clip-rule:evenodd" xmlns:xlink="http://www.w3.org/1999/xlink">
<g><path style="opacity:0.984" fill="#1c2c35" d="M 551.5,-0.5 C 556.5,-0.5 561.5,-0.5 566.5,-0.5C 581.168,-0.032355 595.502,2.80098 609.5,8C 624.974,14.8097 633.474,26.643 635,43.5C 635.667,78.1667 635.667,112.833 635,147.5C 633.011,165.493 623.511,177.66 606.5,184C 591.1,189.238 575.267,191.404 559,190.5C 540.025,191.776 521.858,188.609 504.5,181C 491.986,174.135 484.819,163.635 483,149.5C 482.333,113.167 482.333,76.8333 483,40.5C 485.664,24.0097 494.831,12.843 510.5,7C 523.963,2.58235 537.629,0.0823466 551.5,-0.5 Z M 555.5,39.5 C 564.148,39.429 572.481,40.929 580.5,44C 584.382,47.2637 586.549,51.4303 587,56.5C 587.965,83.8822 587.632,111.216 586,138.5C 584.167,143 581,146.167 576.5,148C 564.833,151.333 553.167,151.333 541.5,148C 535.902,146.069 532.402,142.236 531,136.5C 530.033,107.785 530.366,79.1182 532,50.5C 534.222,46.6119 537.388,43.7786 541.5,42C 546.294,41.0979 550.961,40.2645 555.5,39.5 Z"/></g>
<g><path style="opacity:0.978" fill="#1c2c35" d="M 1087.5,-0.5 C 1092.83,-0.5 1098.17,-0.5 1103.5,-0.5C 1119.48,0.536478 1135.48,2.53648 1151.5,5.5C 1152.83,18.5 1152.83,31.5 1151.5,44.5C 1129.01,40.3486 1106.35,38.8486 1083.5,40C 1075.21,40.9585 1071.21,45.6251 1071.5,54C 1071.75,57.9109 1072.75,61.5776 1074.5,65C 1096.42,73.5297 1118.42,81.8631 1140.5,90C 1148.78,97.396 1153.12,106.563 1153.5,117.5C 1153.5,129.167 1153.5,140.833 1153.5,152.5C 1150.5,169.684 1140.5,180.851 1123.5,186C 1108.75,189.871 1093.75,191.371 1078.5,190.5C 1060.49,190.846 1042.66,189.513 1025,186.5C 1023.89,180.077 1023.39,173.577 1023.5,167C 1023.67,161.5 1023.83,156 1024,150.5C 1024.22,149.062 1024.72,147.729 1025.5,146.5C 1048.36,150.052 1071.36,151.219 1094.5,150C 1098.49,149.588 1101.66,147.754 1104,144.5C 1105.95,137.848 1105.95,131.181 1104,124.5C 1103.17,123.667 1102.33,122.833 1101.5,122C 1080.42,114.864 1059.42,107.531 1038.5,100C 1030.82,94.4895 1026.32,86.9895 1025,77.5C 1023.54,64.8648 1023.21,52.1981 1024,39.5C 1025.75,23.8381 1033.92,13.0047 1048.5,7C 1061.28,2.58641 1074.28,0.0864089 1087.5,-0.5 Z"/></g>
<g><path style="opacity:0.982" fill="#1c2c35" d="M 660.5,2.5 C 672.838,2.33346 685.171,2.50012 697.5,3C 699.9,3.18584 702.234,3.68584 704.5,4.5C 718.167,30.5 731.833,56.5 745.5,82.5C 759.66,56.8503 773.327,30.8503 786.5,4.5C 803.102,2.1866 819.769,1.85327 836.5,3.5C 836.5,64.8333 836.5,126.167 836.5,187.5C 820.504,188.816 804.504,188.816 788.5,187.5C 788.667,154.498 788.5,121.498 788,88.5C 779.5,104.833 771,121.167 762.5,137.5C 751.167,140.167 739.833,140.167 728.5,137.5C 719.921,120.675 711.088,104.008 702,87.5C 701.5,120.832 701.333,154.165 701.5,187.5C 685.504,188.816 669.504,188.816 653.5,187.5C 653.5,126.167 653.5,64.8333 653.5,3.5C 656.059,3.80155 658.393,3.46822 660.5,2.5 Z"/></g>
<g><path style="opacity:0.984" fill="#1c2c35" d="M 863.5,2.5 C 877.525,2.25747 891.525,2.5908 905.5,3.5C 905.333,47.5013 905.5,91.5013 906,135.5C 907.912,143.077 912.746,147.577 920.5,149C 931.67,151.062 942.67,150.395 953.5,147C 957.058,145.108 959.558,142.275 961,138.5C 962.463,93.5296 962.963,48.5296 962.5,3.5C 978.167,2.16667 993.833,2.16667 1009.5,3.5C 1009.67,52.1678 1009.5,100.834 1009,149.5C 1006.96,164.537 999.128,175.37 985.5,182C 968.833,188.751 951.5,191.584 933.5,190.5C 912.033,192.175 892.033,187.675 873.5,177C 864.542,169.586 859.375,160.086 858,148.5C 857.5,100.168 857.333,51.8345 857.5,3.5C 859.735,3.79472 861.735,3.46138 863.5,2.5 Z"/></g>
<g><path style="opacity:0.995" fill="#66378c" d="M 59.5,3.5 C 59.5,67.5 59.5,131.5 59.5,195.5C 56.0078,194.59 53.0078,192.924 50.5,190.5C 50.5,128.5 50.5,66.5 50.5,4.5C 53.2869,3.52333 56.2869,3.19 59.5,3.5 Z"/></g>
<g><path style="opacity:0.996" fill="#6b388c" d="M 59.5,3.5 C 60.8333,3.5 62.1667,3.5 63.5,3.5C 63.5,68.1667 63.5,132.833 63.5,197.5C 61.847,197.34 60.5137,196.674 59.5,195.5C 59.5,131.5 59.5,67.5 59.5,3.5 Z"/></g>
<g><path style="opacity:0.995" fill="#6e398c" d="M 63.5,3.5 C 65.2915,3.36596 66.9582,3.69929 68.5,4.5C 68.5,69.5 68.5,134.5 68.5,199.5C 66.4471,199.598 64.7804,198.931 63.5,197.5C 63.5,132.833 63.5,68.1667 63.5,3.5 Z"/></g>
<g><path style="opacity:0.983" fill="#1c2c35" d="M 317.5,3.5 C 346.835,3.33335 376.169,3.50002 405.5,4C 420.338,4.54253 434.338,8.2092 447.5,15C 457.532,21.5636 463.699,30.7303 466,42.5C 466.167,60 466.333,77.5 466.5,95C 466.635,114.208 466.135,133.375 465,152.5C 459.184,168.977 447.684,179.144 430.5,183C 422.609,184.982 414.609,186.315 406.5,187C 376.835,187.5 347.169,187.667 317.5,187.5C 317.5,126.167 317.5,64.8333 317.5,3.5 Z M 365.5,43.5 C 375.506,43.3335 385.506,43.5002 395.5,44C 403.625,43.9251 410.459,46.7585 416,52.5C 416.862,54.087 417.529,55.7536 418,57.5C 418.667,82.8333 418.667,108.167 418,133.5C 415,141.434 409.167,145.6 400.5,146C 388.838,146.5 377.171,146.667 365.5,146.5C 365.5,112.167 365.5,77.8333 365.5,43.5 Z"/></g>
<g><path style="opacity:0.994" fill="#60368b" d="M 50.5,4.5 C 50.5,66.5 50.5,128.5 50.5,190.5C 47.2957,189.617 44.6291,187.95 42.5,185.5C 42.5,125.833 42.5,66.1667 42.5,6.5C 44.8383,4.96046 47.5049,4.29379 50.5,4.5 Z"/></g>
<g><path style="opacity:0.995" fill="#73398d" d="M 68.5,4.5 C 71.4282,4.56513 74.0948,5.2318 76.5,6.5C 76.5,72.1667 76.5,137.833 76.5,203.5C 73.5198,202.677 70.8531,201.343 68.5,199.5C 68.5,134.5 68.5,69.5 68.5,4.5 Z"/></g>
<g><path style="opacity:0.984" fill="#5a358b" d="M 42.5,6.5 C 42.5,66.1667 42.5,125.833 42.5,185.5C 40.8712,184.375 39.3712,183.041 38,181.5C 37.8333,182.833 37.6667,184.167 37.5,185.5C 38.0271,191.213 39.6938,196.546 42.5,201.5C 42.5,222.167 42.5,242.833 42.5,263.5C 39.5505,261.885 36.8838,259.885 34.5,257.5C 34.5,211.167 34.5,164.833 34.5,118.5C 37.1666,116.827 39.1666,114.493 40.5,111.5C 39.1136,109.258 37.1136,107.925 34.5,107.5C 34.5,74.8333 34.5,42.1667 34.5,9.5C 36.7916,7.73292 39.4582,6.73292 42.5,6.5 Z"/></g>
<g><path style="opacity:0.981" fill="#793a8d" d="M 76.5,6.5 C 79.3798,6.94024 82.0465,7.94024 84.5,9.5C 84.5,56.5 84.5,103.5 84.5,150.5C 79.1667,163.167 79.1667,175.833 84.5,188.5C 84.5,194.5 84.5,200.5 84.5,206.5C 81.8382,205.501 79.1716,204.501 76.5,203.5C 76.5,137.833 76.5,72.1667 76.5,6.5 Z"/></g>
<g><path style="opacity:0.987" fill="#54348a" d="M 34.5,9.5 C 34.5,42.1667 34.5,74.8333 34.5,107.5C 31.8333,105.833 29.1667,104.167 26.5,102.5C 26.5,73.1667 26.5,43.8333 26.5,14.5C 28.822,12.336 31.4887,10.6693 34.5,9.5 Z"/></g>
<g><path style="opacity:0.98" fill="#7f3b8d" d="M 84.5,9.5 C 88.4101,11.0875 91.7435,13.4208 94.5,16.5C 94.5,44.5 94.5,72.5 94.5,100.5C 91.6488,102.427 88.9822,104.594 86.5,107C 88.1829,110.346 90.8495,112.513 94.5,113.5C 94.5,122.167 94.5,130.833 94.5,139.5C 91.1383,143.192 87.8049,146.859 84.5,150.5C 84.5,103.5 84.5,56.5 84.5,9.5 Z"/></g>
<g><path style="opacity:0.98" fill="#4e328a" d="M 26.5,14.5 C 26.5,43.8333 26.5,73.1667 26.5,102.5C 23.1667,99.8333 20.1667,96.8333 17.5,93.5C 17.5,70.1667 17.5,46.8333 17.5,23.5C 19.4784,19.5216 22.4784,16.5216 26.5,14.5 Z"/></g>
<g><path style="opacity:0.981" fill="#863d8e" d="M 94.5,16.5 C 97.1667,18.5 99.5,20.8333 101.5,23.5C 101.5,46.5 101.5,69.5 101.5,92.5C 99.9059,95.7642 97.5725,98.4309 94.5,100.5C 94.5,72.5 94.5,44.5 94.5,16.5 Z"/></g>
<g><path style="opacity:0.976" fill="#48328a" d="M 17.5,23.5 C 17.5,46.8333 17.5,70.1667 17.5,93.5C 15.4776,91.4687 13.8109,89.1354 12.5,86.5C 12.5,67.8333 12.5,49.1667 12.5,30.5C 13.4333,27.6298 15.1,25.2964 17.5,23.5 Z"/></g>
<g><path style="opacity:0.97" fill="#8b3e8e" d="M 101.5,23.5 C 104.579,26.6505 106.913,30.3171 108.5,34.5C 108.5,50.1667 108.5,65.8333 108.5,81.5C 107.343,85.9757 105.01,89.6423 101.5,92.5C 101.5,69.5 101.5,46.5 101.5,23.5 Z"/></g>
<g><path style="opacity:0.959" fill="#45318a" d="M 12.5,30.5 C 12.5,49.1667 12.5,67.8333 12.5,86.5C 11.3263,85.4863 10.6596,84.153 10.5,82.5C 10.5,66.1667 10.5,49.8333 10.5,33.5C 10.427,31.9731 11.0937,30.9731 12.5,30.5 Z"/></g>
<g><path style="opacity:0.863" fill="#433189" d="M 10.5,33.5 C 10.5,49.8333 10.5,66.1667 10.5,82.5C 2.53947,66.1852 2.53947,49.8519 10.5,33.5 Z"/></g>
<g><path style="opacity:0.858" fill="#903f8f" d="M 108.5,34.5 C 116.5,50.1667 116.5,65.8333 108.5,81.5C 108.5,65.8333 108.5,50.1667 108.5,34.5 Z"/></g>
<g><path style="opacity:0.991" fill="#be4792" d="M 176.5,56.5 C 176.5,102.833 176.5,149.167 176.5,195.5C 174.167,196.833 171.833,198.167 169.5,199.5C 169.5,152.167 169.5,104.833 169.5,57.5C 171.607,56.5318 173.941,56.1984 176.5,56.5 Z"/></g>
<g><path style="opacity:0.992" fill="#c44892" d="M 176.5,56.5 C 179.127,57.0916 181.794,57.4249 184.5,57.5C 184.5,101.833 184.5,146.167 184.5,190.5C 181.833,192.167 179.167,193.833 176.5,195.5C 176.5,149.167 176.5,102.833 176.5,56.5 Z"/></g>
<g><path style="opacity:0.994" fill="#b84691" d="M 169.5,57.5 C 169.5,104.833 169.5,152.167 169.5,199.5C 166.993,200.892 164.327,201.892 161.5,202.5C 161.5,154.5 161.5,106.5 161.5,58.5C 164.054,57.612 166.721,57.2786 169.5,57.5 Z"/></g>
<g><path style="opacity:0.991" fill="#ca4993" d="M 184.5,57.5 C 187.833,58.5 191.167,59.5 194.5,60.5C 194.5,100.833 194.5,141.167 194.5,181.5C 191.789,185.212 188.456,188.212 184.5,190.5C 184.5,146.167 184.5,101.833 184.5,57.5 Z"/></g>
<g><path style="opacity:0.977" fill="#b34591" d="M 161.5,58.5 C 161.5,106.5 161.5,154.5 161.5,202.5C 159.147,204.343 156.48,205.677 153.5,206.5C 153.5,200.5 153.5,194.5 153.5,188.5C 158.832,176.179 158.832,163.845 153.5,151.5C 153.5,121.5 153.5,91.5 153.5,61.5C 155.936,60.129 158.603,59.129 161.5,58.5 Z"/></g>
<g><path style="opacity:0.985" fill="#cf4a93" d="M 194.5,60.5 C 195.71,60.9321 196.71,61.5987 197.5,62.5C 197.5,101.167 197.5,139.833 197.5,178.5C 196.833,179.833 195.833,180.833 194.5,181.5C 194.5,141.167 194.5,100.833 194.5,60.5 Z"/></g>
<g><path style="opacity:0.985" fill="#ae4490" d="M 153.5,61.5 C 153.5,91.5 153.5,121.5 153.5,151.5C 152.599,150.71 151.932,149.71 151.5,148.5C 151.5,119.833 151.5,91.1667 151.5,62.5C 151.842,61.6618 152.508,61.3284 153.5,61.5 Z"/></g>
<g><path style="opacity:0.983" fill="#ab4390" d="M 151.5,62.5 C 151.5,91.1667 151.5,119.833 151.5,148.5C 148.862,145.526 146.195,142.526 143.5,139.5C 143.5,115.5 143.5,91.5 143.5,67.5C 145.629,65.0499 148.296,63.3833 151.5,62.5 Z"/></g>
<g><path style="opacity:0.984" fill="#d24b93" d="M 197.5,62.5 C 199.674,62.7497 201.341,63.7497 202.5,65.5C 202.5,129.5 202.5,193.5 202.5,257.5C 201.167,259.5 199.5,261.167 197.5,262.5C 197.5,239.5 197.5,216.5 197.5,193.5C 199.136,188.273 199.636,182.94 199,177.5C 198.617,178.056 198.117,178.389 197.5,178.5C 197.5,139.833 197.5,101.167 197.5,62.5 Z"/></g>
<g><path style="opacity:0.987" fill="#d74b94" d="M 202.5,65.5 C 205.533,67.016 208.2,69.016 210.5,71.5C 210.5,96.1667 210.5,120.833 210.5,145.5C 207.313,147.344 205.313,150.011 204.5,153.5C 206.5,153.833 208.5,154.167 210.5,154.5C 210.5,185.833 210.5,217.167 210.5,248.5C 208.57,252.1 205.903,255.1 202.5,257.5C 202.5,193.5 202.5,129.5 202.5,65.5 Z"/></g>
<g><path style="opacity:0.98" fill="#a54290" d="M 143.5,67.5 C 143.5,91.5 143.5,115.5 143.5,139.5C 140.86,138.18 138.193,136.847 135.5,135.5C 135.5,115.167 135.5,94.8333 135.5,74.5C 137.549,71.4503 140.216,69.117 143.5,67.5 Z"/></g>
<g><path style="opacity:0.973" fill="#dd4c94" d="M 210.5,71.5 C 213.115,73.3788 215.281,75.7121 217,78.5C 217.791,79.745 218.291,81.0783 218.5,82.5C 218.5,99.8333 218.5,117.167 218.5,134.5C 216.6,138.732 213.933,142.399 210.5,145.5C 210.5,120.833 210.5,96.1667 210.5,71.5 Z"/></g>
<g><path style="opacity:0.97" fill="#9f4190" d="M 135.5,74.5 C 135.5,94.8333 135.5,115.167 135.5,135.5C 132.833,134.5 130.167,133.5 127.5,132.5C 127.5,117.5 127.5,102.5 127.5,87.5C 129.382,82.6325 132.048,78.2991 135.5,74.5 Z"/></g>
<g><path style="opacity:0.909" fill="#e34d94" d="M 218.5,82.5 C 221.357,85.5464 223.19,89.2131 224,93.5C 227.333,103.5 227.333,113.5 224,123.5C 222.812,127.613 220.979,131.28 218.5,134.5C 218.5,117.167 218.5,99.8333 218.5,82.5 Z"/></g>
<g><path style="opacity:0.955" fill="#9b4190" d="M 127.5,87.5 C 127.5,102.5 127.5,117.5 127.5,132.5C 126.833,132.5 126.167,132.5 125.5,132.5C 125.5,119.5 125.5,106.5 125.5,93.5C 125.595,91.2143 126.262,89.2143 127.5,87.5 Z"/></g>
<g><path style="opacity:0.892" fill="#98408f" d="M 125.5,93.5 C 125.5,106.5 125.5,119.5 125.5,132.5C 122.904,131.735 120.237,131.401 117.5,131.5C 117.5,127.5 117.5,123.5 117.5,119.5C 119.467,119.739 121.301,119.406 123,118.5C 123.622,114.971 123.455,111.471 122.5,108C 122.978,102.924 123.978,98.0903 125.5,93.5 Z"/></g>
<g><path style="opacity:0.952" fill="#863d8e" d="M 94.5,113.5 C 96.7457,114.455 99.079,115.122 101.5,115.5C 101.5,122.167 101.5,128.833 101.5,135.5C 99.1667,136.833 96.8333,138.167 94.5,139.5C 94.5,130.833 94.5,122.167 94.5,113.5 Z"/></g>
<g><path style="opacity:0.935" fill="#8c3e8e" d="M 101.5,115.5 C 104.067,116.475 106.733,117.142 109.5,117.5C 109.5,122.5 109.5,127.5 109.5,132.5C 106.833,133.5 104.167,134.5 101.5,135.5C 101.5,128.833 101.5,122.167 101.5,115.5 Z"/></g>
<g><path style="opacity:0.938" fill="#923f8f" d="M 109.5,117.5 C 112.115,118.291 114.782,118.957 117.5,119.5C 117.5,123.5 117.5,127.5 117.5,131.5C 114.833,131.833 112.167,132.167 109.5,132.5C 109.5,127.5 109.5,122.5 109.5,117.5 Z"/></g>
<g><path style="opacity:0.991" fill="#54348a" d="M 34.5,118.5 C 34.5,164.833 34.5,211.167 34.5,257.5C 31.5,255.167 28.8333,252.5 26.5,249.5C 26.5,207.5 26.5,165.5 26.5,123.5C 29.1667,121.833 31.8333,120.167 34.5,118.5 Z"/></g>
<g><path style="opacity:0.989" fill="#4d328a" d="M 26.5,123.5 C 26.5,165.5 26.5,207.5 26.5,249.5C 22.7881,246.789 19.7881,243.456 17.5,239.5C 17.5,202.833 17.5,166.167 17.5,129.5C 20.5,127.5 23.5,125.5 26.5,123.5 Z"/></g>
<g><path style="opacity:0.983" fill="#48328a" d="M 17.5,129.5 C 17.5,166.167 17.5,202.833 17.5,239.5C 15.0499,237.371 13.3833,234.704 12.5,231.5C 12.5,199.167 12.5,166.833 12.5,134.5C 13.8333,132.5 15.5,130.833 17.5,129.5 Z"/></g>
<g><path style="opacity:0.985" fill="#453189" d="M 12.5,134.5 C 12.5,166.833 12.5,199.167 12.5,231.5C 10.7497,230.341 9.74973,228.674 9.5,226.5C 9.5,196.833 9.5,167.167 9.5,137.5C 10.1667,136.167 11.1667,135.167 12.5,134.5 Z"/></g>
<g><path style="opacity:0.96" fill="#413089" d="M 9.5,137.5 C 9.5,167.167 9.5,196.833 9.5,226.5C 4.84343,218.187 2.17677,209.187 1.5,199.5C 1.5,185.833 1.5,172.167 1.5,158.5C 1.8253,150.513 4.49197,143.513 9.5,137.5 Z"/></g>
<g><path style="opacity:0.984" fill="#dd4c94" d="M 210.5,154.5 C 213.328,155.655 215.995,156.989 218.5,158.5C 218.5,184.5 218.5,210.5 218.5,236.5C 216.316,240.881 213.65,244.881 210.5,248.5C 210.5,217.167 210.5,185.833 210.5,154.5 Z"/></g>
<g><path style="opacity:0.642" fill="#3e3089" d="M 1.5,158.5 C 1.5,172.167 1.5,185.833 1.5,199.5C 0.833333,195.5 0.166667,191.5 -0.5,187.5C -0.5,181.167 -0.5,174.833 -0.5,168.5C 0.166667,165.167 0.833333,161.833 1.5,158.5 Z"/></g>
<g><path style="opacity:0.966" fill="#e34d94" d="M 218.5,158.5 C 223.248,160.913 226.581,164.58 228.5,169.5C 228.5,181.833 228.5,194.167 228.5,206.5C 227.305,217.306 223.972,227.306 218.5,236.5C 218.5,210.5 218.5,184.5 218.5,158.5 Z"/></g>
<g><path style="opacity:0.769" fill="#e84f95" d="M 228.5,169.5 C 230.868,173.389 231.868,177.722 231.5,182.5C 231.211,190.735 230.211,198.735 228.5,206.5C 228.5,194.167 228.5,181.833 228.5,169.5 Z"/></g>
<g><path style="opacity:0.902" fill="#7f3b8d" d="M 84.5,188.5 C 87.8617,192.192 91.1951,195.859 94.5,199.5C 94.5,202.5 94.5,205.5 94.5,208.5C 91.1226,208.041 87.7893,207.374 84.5,206.5C 84.5,200.5 84.5,194.5 84.5,188.5 Z"/></g>
<g><path style="opacity:0.899" fill="#ae4490" d="M 153.5,188.5 C 153.5,194.5 153.5,200.5 153.5,206.5C 152.833,206.5 152.167,206.5 151.5,206.5C 151.5,201.833 151.5,197.167 151.5,192.5C 151.66,190.847 152.326,189.514 153.5,188.5 Z"/></g>
<g><path style="opacity:0.895" fill="#ab4390" d="M 151.5,192.5 C 151.5,197.167 151.5,201.833 151.5,206.5C 149.064,207.871 146.397,208.871 143.5,209.5C 143.5,206.5 143.5,203.5 143.5,200.5C 146.527,198.14 149.194,195.473 151.5,192.5 Z"/></g>
<g><path style="opacity:0.968" fill="#cf4a93" d="M 197.5,193.5 C 197.5,216.5 197.5,239.5 197.5,262.5C 196.833,263.833 195.833,264.833 194.5,265.5C 194.5,243.5 194.5,221.5 194.5,199.5C 194.992,197.181 195.992,195.181 197.5,193.5 Z"/></g>
<g><path style="opacity:0.843" fill="#863d8e" d="M 94.5,199.5 C 97.7063,200.763 100.04,202.929 101.5,206C 101.355,206.772 101.022,207.439 100.5,208C 98.5273,208.495 96.5273,208.662 94.5,208.5C 94.5,205.5 94.5,202.5 94.5,199.5 Z"/></g>
<g><path style="opacity:0.98" fill="#ca4993" d="M 194.5,199.5 C 194.5,221.5 194.5,243.5 194.5,265.5C 191.167,267.833 187.833,270.167 184.5,272.5C 184.5,252.167 184.5,231.833 184.5,211.5C 187.844,207.46 191.177,203.46 194.5,199.5 Z"/></g>
<g><path style="opacity:0.792" fill="#a64290" d="M 143.5,200.5 C 143.5,203.5 143.5,206.5 143.5,209.5C 138.877,210.592 137.044,208.925 138,204.5C 139.774,203.035 141.608,201.702 143.5,200.5 Z"/></g>
<g><path style="opacity:0.979" fill="#5f368b" d="M 42.5,201.5 C 45.1752,204.209 47.8419,206.876 50.5,209.5C 50.5,229.167 50.5,248.833 50.5,268.5C 47.8333,266.833 45.1667,265.167 42.5,263.5C 42.5,242.833 42.5,222.167 42.5,201.5 Z"/></g>
<g><path style="opacity:0.979" fill="#66378c" d="M 50.5,209.5 C 53.319,212.075 56.319,214.408 59.5,216.5C 59.5,235.5 59.5,254.5 59.5,273.5C 56.0078,272.59 53.0078,270.924 50.5,268.5C 50.5,248.833 50.5,229.167 50.5,209.5 Z"/></g>
<g><path style="opacity:0.98" fill="#c44892" d="M 184.5,211.5 C 184.5,231.833 184.5,252.167 184.5,272.5C 182.117,274.358 179.45,275.692 176.5,276.5C 176.5,257.167 176.5,237.833 176.5,218.5C 179.126,216.177 181.793,213.843 184.5,211.5 Z"/></g>
<g><path style="opacity:0.934" fill="#1c2c35" d="M 1002.5,211.5 C 1006.83,211.5 1011.17,211.5 1015.5,211.5C 1015.5,235.5 1015.5,259.5 1015.5,283.5C 1011.77,283.823 1008.11,283.489 1004.5,282.5C 1003.85,280.885 1003.35,279.218 1003,277.5C 1001.75,280.381 999.583,282.214 996.5,283C 988.554,285.339 980.887,284.672 973.5,281C 971.383,279.269 969.883,277.102 969,274.5C 968.061,262.096 968.394,249.762 970,237.5C 974.15,232.167 979.65,229.834 986.5,230.5C 992.462,229.944 997.629,231.611 1002,235.5C 1002.5,227.507 1002.67,219.507 1002.5,211.5 Z M 985.5,241.5 C 990.37,241.032 995.036,241.698 999.5,243.5C 1000.58,244.665 1001.42,245.998 1002,247.5C 1002.67,254.167 1002.67,260.833 1002,267.5C 1001.22,269.286 1000.05,270.786 998.5,272C 993.816,273.909 989.15,273.909 984.5,272C 983.299,271.097 982.465,269.931 982,268.5C 981.333,260.833 981.333,253.167 982,245.5C 983.376,244.295 984.542,242.962 985.5,241.5 Z"/></g>
<g><path style="opacity:0.899" fill="#1c2c35" d="M 1025.5,212.5 C 1030.17,212.5 1034.83,212.5 1039.5,212.5C 1039.5,216.167 1039.5,219.833 1039.5,223.5C 1035.15,223.666 1030.82,223.499 1026.5,223C 1025.54,219.606 1025.21,216.106 1025.5,212.5 Z"/></g>
<g><path style="opacity:0.924" fill="#1c2c35" d="M 338.5,214.5 C 346.875,214.316 355.208,214.816 363.5,216C 365.362,219.149 366.029,222.649 365.5,226.5C 357.182,225.593 348.849,225.427 340.5,226C 336.078,226.758 333.245,229.258 332,233.5C 331.333,244.167 331.333,254.833 332,265.5C 332.346,267.848 333.513,269.681 335.5,271C 345.17,274.088 354.837,273.922 364.5,270.5C 366.223,273.94 366.89,277.606 366.5,281.5C 355.602,284.492 344.602,284.992 333.5,283C 327.34,282.171 322.84,279.004 320,273.5C 318.383,258.568 318.049,243.568 319,228.5C 319.998,224.507 322.165,221.341 325.5,219C 329.715,216.763 334.048,215.263 338.5,214.5 Z"/></g>
<g><path style="opacity:0.977" fill="#6b388c" d="M 59.5,216.5 C 60.8717,217.512 62.205,218.512 63.5,219.5C 63.5,238.5 63.5,257.5 63.5,276.5C 61.7697,275.974 60.4363,274.974 59.5,273.5C 59.5,254.5 59.5,235.5 59.5,216.5 Z"/></g>
<g><path style="opacity:0.98" fill="#be4792" d="M 176.5,218.5 C 176.5,237.833 176.5,257.167 176.5,276.5C 174.321,277.677 171.987,278.677 169.5,279.5C 169.5,261.167 169.5,242.833 169.5,224.5C 171.234,221.8 173.568,219.8 176.5,218.5 Z"/></g>
<g><path style="opacity:0.925" fill="#1c2c35" d="M 484.5,218.5 C 488.833,218.5 493.167,218.5 497.5,218.5C 497.5,222.833 497.5,227.167 497.5,231.5C 502.5,231.5 507.5,231.5 512.5,231.5C 512.5,235.167 512.5,238.833 512.5,242.5C 507.5,242.5 502.5,242.5 497.5,242.5C 497.334,251.173 497.5,259.84 498,268.5C 498.833,270.667 500.333,272.167 502.5,273C 505.868,273.543 509.201,273.376 512.5,272.5C 512.5,276.167 512.5,279.833 512.5,283.5C 504.506,285.434 496.839,284.601 489.5,281C 487.106,279.048 485.606,276.548 485,273.5C 484.5,263.172 484.334,252.839 484.5,242.5C 481.833,242.5 479.167,242.5 476.5,242.5C 476.5,239.167 476.5,235.833 476.5,232.5C 478.92,232.708 481.253,232.374 483.5,231.5C 484.492,227.217 484.826,222.884 484.5,218.5 Z"/></g>
<g><path style="opacity:0.98" fill="#6e398c" d="M 63.5,219.5 C 65.3684,220.263 67.0351,221.263 68.5,222.5C 68.5,241.167 68.5,259.833 68.5,278.5C 66.8333,277.833 65.1667,277.167 63.5,276.5C 63.5,257.5 63.5,238.5 63.5,219.5 Z"/></g>
<g><path style="opacity:0.98" fill="#73398d" d="M 68.5,222.5 C 71.2028,224.181 73.8695,225.847 76.5,227.5C 76.5,244.833 76.5,262.167 76.5,279.5C 73.7628,279.599 71.0961,279.265 68.5,278.5C 68.5,259.833 68.5,241.167 68.5,222.5 Z"/></g>
<g><path style="opacity:0.982" fill="#b84691" d="M 169.5,224.5 C 169.5,242.833 169.5,261.167 169.5,279.5C 166.833,279.5 164.167,279.5 161.5,279.5C 161.5,262.833 161.5,246.167 161.5,229.5C 163.858,227.322 166.525,225.655 169.5,224.5 Z"/></g>
<g><path style="opacity:0.98" fill="#793a8d" d="M 76.5,227.5 C 79.2028,229.181 81.8695,230.847 84.5,232.5C 84.5,247.833 84.5,263.167 84.5,278.5C 81.9455,279.388 79.2788,279.721 76.5,279.5C 76.5,262.167 76.5,244.833 76.5,227.5 Z"/></g>
<g><path style="opacity:0.976" fill="#b34591" d="M 161.5,229.5 C 161.5,246.167 161.5,262.833 161.5,279.5C 158.659,279.44 155.993,278.774 153.5,277.5C 153.5,263.5 153.5,249.5 153.5,235.5C 155.86,233.147 158.527,231.147 161.5,229.5 Z"/></g>
<g><path style="opacity:0.928" fill="#1c2c35" d="M 386.5,230.5 C 410.5,227.167 420.833,237.5 417.5,261.5C 406.833,261.5 396.167,261.5 385.5,261.5C 385.107,264.93 385.773,268.096 387.5,271C 396.079,274.066 404.746,274.233 413.5,271.5C 414.086,271.709 414.586,272.043 415,272.5C 415.784,275.76 415.617,278.927 414.5,282C 402.36,285.653 390.36,285.32 378.5,281C 375.894,279.062 374.061,276.562 373,273.5C 372.333,262.833 372.333,252.167 373,241.5C 373.731,239.101 374.898,236.935 376.5,235C 379.815,233.17 383.149,231.67 386.5,230.5 Z M 389.5,241.5 C 393.967,241.133 398.3,241.633 402.5,243C 404.227,245.904 404.893,249.07 404.5,252.5C 398.122,252.295 391.789,252.628 385.5,253.5C 385.336,250.813 385.503,248.146 386,245.5C 386.69,243.65 387.856,242.316 389.5,241.5 Z"/></g>
<g><path style="opacity:0.923" fill="#1c2c35" d="M 446.5,230.5 C 454.206,229.665 461.539,230.831 468.5,234C 469.211,235.255 470.044,236.421 471,237.5C 472.452,252.762 472.952,268.095 472.5,283.5C 468.167,283.5 463.833,283.5 459.5,283.5C 459.667,271.162 459.5,258.829 459,246.5C 457.305,242.137 454.138,240.47 449.5,241.5C 444.713,240.644 441.213,242.311 439,246.5C 438.5,258.829 438.333,271.162 438.5,283.5C 434.167,283.5 429.833,283.5 425.5,283.5C 425.5,266.167 425.5,248.833 425.5,231.5C 429.167,231.5 432.833,231.5 436.5,231.5C 436.491,233.308 436.991,234.975 438,236.5C 440.322,233.605 443.155,231.605 446.5,230.5 Z"/></g>
<g><path style="opacity:0.917" fill="#1c2c35" d="M 539.5,230.5 C 547.336,228.855 550.17,231.855 548,239.5C 544.44,241.193 540.606,242.359 536.5,243C 533.619,244.251 531.786,246.417 531,249.5C 530.5,260.828 530.333,272.162 530.5,283.5C 526.167,283.5 521.833,283.5 517.5,283.5C 517.5,266.167 517.5,248.833 517.5,231.5C 521.5,231.5 525.5,231.5 529.5,231.5C 529.338,233.527 529.505,235.527 530,237.5C 530.465,236.069 531.299,234.903 532.5,234C 534.925,232.787 537.259,231.621 539.5,230.5 Z"/></g>
<g><path style="opacity:0.925" fill="#1c2c35" d="M 630.5,230.5 C 637.877,229.689 644.877,230.856 651.5,234C 652.618,235.074 653.618,236.24 654.5,237.5C 656.68,233.576 660.014,231.409 664.5,231C 671.054,229.919 677.388,230.586 683.5,233C 686.467,235.1 688.3,237.934 689,241.5C 689.5,255.496 689.667,269.496 689.5,283.5C 685.167,283.5 680.833,283.5 676.5,283.5C 676.667,271.162 676.5,258.829 676,246.5C 674.44,242.278 671.44,240.611 667,241.5C 661.875,240.895 658.208,242.895 656,247.5C 655.5,259.495 655.333,271.495 655.5,283.5C 651.167,283.5 646.833,283.5 642.5,283.5C 642.667,270.829 642.5,258.162 642,245.5C 640.028,242.111 637.028,240.778 633,241.5C 628.408,240.796 625.075,242.463 623,246.5C 622.5,258.829 622.333,271.162 622.5,283.5C 618.167,283.5 613.833,283.5 609.5,283.5C 609.5,266.167 609.5,248.833 609.5,231.5C 613.167,231.5 616.833,231.5 620.5,231.5C 620.231,233.429 620.731,235.095 622,236.5C 622.374,235.584 622.874,234.75 623.5,234C 625.925,232.787 628.259,231.621 630.5,230.5 Z"/></g>
<g><path style="opacity:0.926" fill="#1c2c35" d="M 730.5,304.5 C 726.167,304.5 721.833,304.5 717.5,304.5C 717.5,280.167 717.5,255.833 717.5,231.5C 721.5,230.167 725.5,230.167 729.5,231.5C 729.338,233.527 729.505,235.527 730,237.5C 731.868,233.479 735.035,231.313 739.5,231C 760.595,227.598 768.929,236.431 764.5,257.5C 767.778,279.719 758.445,288.219 736.5,283C 734.413,282.208 732.579,281.041 731,279.5C 730.5,287.827 730.334,296.16 730.5,304.5 Z M 736.5,241.5 C 740.182,241.335 743.848,241.501 747.5,242C 749.333,242.5 750.5,243.667 751,245.5C 751.667,253.5 751.667,261.5 751,269.5C 745.619,274.217 739.786,274.717 733.5,271C 732.54,269.581 731.707,268.081 731,266.5C 730.333,260.167 730.333,253.833 731,247.5C 732.36,244.977 734.193,242.977 736.5,241.5 Z"/></g>
<g><path style="opacity:0.956" fill="#1c2c35" d="M 796.5,230.5 C 799.167,230.5 801.833,230.5 804.5,230.5C 804.5,234.167 804.5,237.833 804.5,241.5C 796.35,240.257 790.517,243.257 787,250.5C 786.5,261.495 786.333,272.495 786.5,283.5C 782.5,283.5 778.5,283.5 774.5,283.5C 774.5,266.167 774.5,248.833 774.5,231.5C 778.167,231.5 781.833,231.5 785.5,231.5C 785.338,233.527 785.505,235.527 786,237.5C 788.701,233.748 792.201,231.415 796.5,230.5 Z"/></g>
<g><path style="opacity:0.931" fill="#1c2c35" d="M 821.5,230.5 C 828.906,230.152 836.239,230.652 843.5,232C 846.902,233.4 849.736,235.567 852,238.5C 853.602,250.095 853.935,261.762 853,273.5C 851.5,277.667 848.667,280.5 844.5,282C 834.028,285.532 823.695,285.199 813.5,281C 811.291,279.127 809.458,276.96 808,274.5C 806,263.167 806,251.833 808,240.5C 808.792,238.413 809.959,236.579 811.5,235C 814.703,232.997 818.036,231.497 821.5,230.5 Z M 824.5,241.5 C 828.514,241.334 832.514,241.501 836.5,242C 838.333,242.5 839.5,243.667 840,245.5C 840.667,253.5 840.667,261.5 840,269.5C 836.208,273.128 831.708,274.294 826.5,273C 824.069,272.705 822.236,271.538 821,269.5C 819.443,262.247 819.11,254.914 820,247.5C 820.599,244.746 822.099,242.746 824.5,241.5 Z"/></g>
<g><path style="opacity:0.932" fill="#1c2c35" d="M 903.5,230.5 C 906.167,230.5 908.833,230.5 911.5,230.5C 911.5,234.167 911.5,237.833 911.5,241.5C 904.439,240.456 898.939,242.79 895,248.5C 894.5,260.162 894.333,271.829 894.5,283.5C 890.167,283.5 885.833,283.5 881.5,283.5C 881.5,266.167 881.5,248.833 881.5,231.5C 885.167,231.5 888.833,231.5 892.5,231.5C 892.58,237.417 894.246,237.917 897.5,233C 899.723,232.434 901.723,231.6 903.5,230.5 Z"/></g>
<g><path style="opacity:0.933" fill="#1c2c35" d="M 928.5,230.5 C 934.509,230.334 940.509,230.501 946.5,231C 952.74,231.856 957.24,235.023 960,240.5C 960.667,251.5 960.667,262.5 960,273.5C 958.969,276.539 957.135,279.039 954.5,281C 943.167,285.667 931.833,285.667 920.5,281C 919,279.5 917.5,278 916,276.5C 914.396,264.571 914.063,252.571 915,240.5C 915.792,238.413 916.959,236.579 918.5,235C 921.815,233.17 925.149,231.67 928.5,230.5 Z M 931.5,241.5 C 935.514,241.334 939.514,241.501 943.5,242C 945.333,242.5 946.5,243.667 947,245.5C 947.667,253.5 947.667,261.5 947,269.5C 940.667,274.833 934.333,274.833 928,269.5C 927.333,261.5 927.333,253.5 928,245.5C 928.69,243.65 929.856,242.316 931.5,241.5 Z"/></g>
<g><path style="opacity:0.931" fill="#1c2c35" d="M 1071.5,230.5 C 1078.39,229.901 1085.06,230.735 1091.5,233C 1093.38,234.543 1094.88,236.376 1096,238.5C 1097.45,253.428 1097.95,268.428 1097.5,283.5C 1093.17,283.5 1088.83,283.5 1084.5,283.5C 1084.67,271.162 1084.5,258.829 1084,246.5C 1081.93,242.463 1078.59,240.796 1074,241.5C 1069.41,240.796 1066.07,242.463 1064,246.5C 1063.5,258.829 1063.33,271.162 1063.5,283.5C 1059.17,283.5 1054.83,283.5 1050.5,283.5C 1050.5,266.167 1050.5,248.833 1050.5,231.5C 1054.17,231.5 1057.83,231.5 1061.5,231.5C 1061.23,233.429 1061.73,235.095 1063,236.5C 1063.37,235.584 1063.87,234.75 1064.5,234C 1066.93,232.787 1069.26,231.621 1071.5,230.5 Z"/></g>
<g><path style="opacity:0.921" fill="#1c2c35" d="M 551.5,231.5 C 555.833,231.5 560.167,231.5 564.5,231.5C 564.333,243.838 564.5,256.171 565,268.5C 566.873,272.027 569.873,273.693 574,273.5C 578.875,273.554 582.542,271.554 585,267.5C 585.5,255.505 585.667,243.505 585.5,231.5C 589.833,231.5 594.167,231.5 598.5,231.5C 598.5,248.833 598.5,266.167 598.5,283.5C 594.5,283.5 590.5,283.5 586.5,283.5C 586.662,281.473 586.495,279.473 586,277.5C 584.749,280.381 582.583,282.214 579.5,283C 572.051,285.188 564.717,284.855 557.5,282C 556,280.5 554.5,279 553,277.5C 551.548,262.238 551.048,246.905 551.5,231.5 Z"/></g>
<g><path style="opacity:0.926" fill="#1c2c35" d="M 1026.5,231.5 C 1030.83,231.5 1035.17,231.5 1039.5,231.5C 1039.5,248.833 1039.5,266.167 1039.5,283.5C 1035.17,283.5 1030.83,283.5 1026.5,283.5C 1026.5,266.167 1026.5,248.833 1026.5,231.5 Z"/></g>
<g><path style="opacity:0.934" fill="#1c2c35" d="M 1153.5,231.5 C 1153.5,248.833 1153.5,266.167 1153.5,283.5C 1149.5,283.5 1145.5,283.5 1141.5,283.5C 1141.66,281.473 1141.5,279.473 1141,277.5C 1139.75,280.381 1137.58,282.214 1134.5,283C 1125.38,285.767 1116.88,284.6 1109,279.5C 1108.33,278.167 1107.67,276.833 1107,275.5C 1106.5,260.837 1106.33,246.17 1106.5,231.5C 1110.5,231.5 1114.5,231.5 1118.5,231.5C 1118.1,244.219 1118.6,256.886 1120,269.5C 1125.38,274.217 1131.21,274.717 1137.5,271C 1138.46,269.581 1139.29,268.081 1140,266.5C 1140.5,254.838 1140.67,243.171 1140.5,231.5C 1144.83,231.5 1149.17,231.5 1153.5,231.5 Z"/></g>
<g><path style="opacity:0.967" fill="#7f3b8d" d="M 84.5,232.5 C 87.8333,234.5 91.1667,236.5 94.5,238.5C 94.5,248.833 94.5,259.167 94.5,269.5C 92.8846,274.323 89.5513,277.323 84.5,278.5C 84.5,263.167 84.5,247.833 84.5,232.5 Z"/></g>
<g><path style="opacity:0.969" fill="#ae4490" d="M 153.5,235.5 C 153.5,249.5 153.5,263.5 153.5,277.5C 152.5,277.167 151.833,276.5 151.5,275.5C 151.5,262.5 151.5,249.5 151.5,236.5C 151.842,235.662 152.508,235.328 153.5,235.5 Z"/></g>
<g><path style="opacity:0.958" fill="#ab4390" d="M 151.5,236.5 C 151.5,249.5 151.5,262.5 151.5,275.5C 147.664,272.322 144.998,268.322 143.5,263.5C 143.5,255.833 143.5,248.167 143.5,240.5C 146.193,239.153 148.86,237.82 151.5,236.5 Z"/></g>
<g><path style="opacity:0.922" fill="#863d8e" d="M 94.5,238.5 C 102.503,242.648 104.67,248.981 101,257.5C 99.0591,261.722 96.8924,265.722 94.5,269.5C 94.5,259.167 94.5,248.833 94.5,238.5 Z"/></g>
<g><path style="opacity:0.83" fill="#a64390" d="M 143.5,240.5 C 143.5,248.167 143.5,255.833 143.5,263.5C 138.611,256.957 137.778,249.957 141,242.5C 141.708,241.619 142.542,240.953 143.5,240.5 Z"/></g>
</svg>
